<?xml version="1.0" encoding="UTF-8"?>
<svg version="1.1" viewBox="0 0 2048 2048" width="2142" height="2142" xmlns="http://www.w3.org/2000/svg">
<path transform="translate(997,85)" d="m0 0h57l35 3 35 5 34 7 32 9 37 13 27 12 25 12 23 13 21 13 17 12 19 14 13 11 11 9 16 15 31 31 7 8 12 14 13 17 11 15 14 21 9 15 14 25 14 29 11 27 12 35 10 38 6 33 4 31 2 26v62l-3 36-5 34-6 29-8 29-12 36-10 24-14 30-12 22-12 20-15 22-14 19-13 16-12 14-15 16-25 25-8 7-15 13-30 23-12 8-20 13-16 9 2 5 11 20 9 15 15 26 11 19v12l-6 5-25 13-29 13-31 12-33 11-41 11-35 7-36 5-32 3-20 1h-55l-33-2-42-5-29-5-38-9-34-10-26-9-32-13-28-13-21-11-5-5v-11l30-52 14-24 4-7-1-3-16-9-27-18-19-14-16-13-14-12-15-14-27-27-7-8-9-10-11-14-14-18-12-18-12-19-12-21-14-27-13-30-10-28-9-29-8-33-6-37-4-42v-67l4-42 6-38 9-36 9-29 11-29 13-29 11-22 14-24 10-16 11-16 12-16 11-14 12-14 12-13 8-8 7-8 17-16 13-12 14-11 16-13 16-11 18-12 22-13 22-12 25-12 27-11 36-12 25-7 34-7 35-5z" fill="#142A83"/>
<path transform="translate(1012,338)" d="m0 0h26l31 3 25 5 24 7 21 8 25 12 22 13 19 14 14 12 15 14 12 13 11 14 13 18 12 21 11 22 9 25 7 24 5 28 2 21v35l-3 28-5 24-6 21-8 22-13 27-12 20-10 14-11 14-12 13-18 18-11 9-13 10-15 10-18 10-16 8-19 8-22 7-25 6-20 3-10 1h-48l-24-3-28-6-33-11-24-11-18-10-15-10-16-12-14-12-13-12-7-8-10-11-14-19-12-19-12-23-9-21-8-24-6-26-3-21-1-12v-39l3-27 5-24 7-24 8-21 10-21 13-22 12-17 9-11 9-10 7-8 10-10 8-7 15-12 17-12 21-12 27-13 33-11 21-5 28-4z" fill="#FDFDFD"/>
<path transform="translate(1017,142)" d="m0 0h16l25 1 38 4 28 5 40 10 30 10 29 12 25 12 24 13 19 12 16 11 12 9 14 11 13 11 13 12 28 28 7 8 14 17 12 16 20 30 12 21 12 23 8 17 11 28 9 27 8 31 6 30v2l-17 3-121 17-5-1-6-29-8-26-8-21-11-24-10-18-12-19-13-17-8-10-18-20-10-10-8-7-13-11-18-13-17-11-25-14-25-11-25-9-22-6-24-5-23-3-12-1h-44l-29 3-31 6-24 7-25 9-26 12-18 10-19 12-21 16-13 11-13 12-11 11-7 8-10 12-14 19-12 19-12 22-8 17-11 29-7 24-5 25-1 2-19-2-120-17-3-1 4-24 10-40 11-32 12-29 17-34 13-22 14-21 14-19 13-16 13-15 8-8 7-8 8-8 8-7 12-11 11-9 18-14 19-13 19-12 16-9 23-12 22-10 31-12 30-9 29-7 36-6 30-3z" fill="#FCFCFC"/>
<path transform="translate(713,776)" d="m0 0 3 3 10 19 13 21 12 17 13 16 11 12 7 8 17 16 11 9 16 12 18 12 21 12 25 12 27 10 23 7 24 5 20 3 25 2h32l25-2 30-5 28-7 26-9 25-11 21-11 21-13 16-12 14-11 13-12 10-9 7-8 11-12 13-17 10-14 12-20 12-23 9 3 39 17 41 18 35 15 8 4-2 6-14 27-13 22-10 15-12 17-11 14-11 13-9 10-7 8-24 24-11 9-11 10-16 12-18 13-22 14-21 12-30 15-27 11-20 7-26 8-30 7-36 6-34 3h-54l-34-3-36-6-30-7-30-9-34-13-24-11-19-10-14-8-19-12-16-11-12-9-14-11-15-13-12-11-24-24-7-8-12-14-12-16-13-18-12-19-10-17-15-29-1-4 10-5 37-16 41-18 30-13z" fill="#FDFDFD"/>
<path transform="translate(997,107)" d="m0 0h56l35 3 38 6 35 8 35 11 27 10 33 15 23 12 22 13 21 14 14 10 13 10 13 11 11 9 7 7 8 7 19 19 7 8 9 10 9 11 14 18 16 23 13 21 13 23 11 22 12 28 9 25 8 25 8 32 5 26 4 30 2 24v62l-3 34-6 37-7 31-9 30-9 26-11 26-14 29-13 23-12 19-13 19-9 12-8 10-9 11-9 10-7 8-12 13-10 10-8 7-12 11-11 9-14 11-15 11-24 16-24 14-23 12-21 10-27 11-40 13-28 7-32 6-31 4-30 2h-42l-30-2-37-5-26-5-28-7-40-13-22-9-20-9-16-8-19-10-23-14-22-15-21-16-11-9-10-9-8-7-13-12-14-14-7-8-10-11-11-14-12-15-16-23-13-21-14-25-14-29-10-24-10-28-10-35-7-34-1-11 2 4 5 15 7 14 8 11 9 10 10 9 14 9 16 7 14 4 17 2h11l16-2 11-2-2 2-26 11-41 18-12 5 5 12 11 23 14 24 11 18 12 17 9 12 11 14 13 15 14 15 18 18 8 7 15 13 17 13 15 11 23 15 26 15 26 13 31 13 36 12 26 7 29 6 27 4 35 3h50l35-3 33-5 27-6 29-8 29-10 26-11 29-14 23-13 19-12 20-14 18-14 13-11 10-9 12-11 16-16 7-8 9-10 11-14 13-17 15-22 15-25 12-23 11-23-3-2-27-12-49-21-9-4 3-1 15 4 16 2h10l17-2 15-4 19-9 14-10 10-9 12-16 9-17 5-16 2-11 1-19-2-17-4-15-7-16-7-11-8-10-10-10-14-10-19-9-19-5-19-2v-1l48-7 35-5h3l-7-39-8-32-12-36-10-25-13-28-13-24-13-21-11-16-14-19-14-17-10-11-7-8-26-26-8-7-13-11-17-13-18-13-22-14-21-12-17-9-24-11-23-9-36-12-28-7-32-6-33-4-13-1h-62l-31 3-32 5-28 6-31 9-26 9-26 11-29 14-21 12-19 12-16 11-16 12-11 9-13 11-12 11-8 8-5 4-7 8-7 7-7 8-11 13-13 17-12 17-10 15-14 24-12 23-12 26-10 27-10 31-8 33-6 35 24 3 71 10v1l-21 1-17 3-15 5-15 8-12 9-10 9-10 13-8 14-6 15-4 20-1 19h-1l-3-30-1-27v-13l1-27 3-31 5-33 8-36 9-30 10-28 13-30 14-28 14-24 20-30 12-16 13-16 12-14 14-15 20-20 8-7 15-13 17-13 16-12 20-13 20-12 22-12 25-12 27-11 35-12 30-8 36-7 30-4z" fill="#FDFDFD"/>
<path transform="translate(916,428)" d="m0 0h19l11 2 1 6-7 5-1 2v6l3 3 27-2 45-6 52-8 34-4 15-1h43l23 2 18 4 14 7 7 8 3 9v11l-3 10-6 12-11 14-13 13-11 9-6 4h-2l1-5 10-14 9-13 4-10 1-4v-8l-4-8-8-6-14-4-18-1-27 2-23 3-2 1 4 15 15 64v5h2l3-10 7-16 6-48 7-2h22l11 2 5 3 1 5-14 24-13 24-9 29-20 70-17 64-20 79-24 97-4 15-7-6-9-10-13-13-7-8-15-15-7-8-13-13-7-8 4-6 14-19-12-53-31-134-17-73-7-30v-2l-5 1h-42l-14-2-12-4-9-6-4-5-2-6 1-9 6-8 7-6 15-8 12-4 17-3z" fill="#006C3E"/>
<path transform="translate(784,1107)" d="m0 0 6 2 19 9 30 12 36 12 40 10 27 5 33 4 31 2h38l31-2 33-4 36-7 31-8 36-12 32-13 21-10 4 4 16 28 14 24 16 27v2l-31 15-32 13-25 9-29 9-40 10-33 6-40 5-29 2h-60l-39-3-42-6-34-7-34-9-37-12-30-12-29-13-15-8 8-14 13-23 16-27 11-19z" fill="#FDFDFD"/>
<path transform="translate(997,85)" d="m0 0h57l35 3 35 5 34 7 32 9 37 13 27 12 25 12 23 13 21 13 17 12 19 14 13 11 11 9 16 15 31 31 7 8 12 14 13 17 11 15 14 21 9 15 14 25 14 29 11 27 12 35 10 38 6 33 4 31 2 26v62l-3 36-5 34-6 29-8 29-12 36-10 24-14 30-12 22-12 20-15 22-14 19-13 16-12 14-15 16-25 25-8 7-15 13-30 23-12 8-20 13-16 9 2 5 11 20 9 15 15 26 11 19v12l-6 5-25 13-29 13-31 12-33 11-41 11-35 7-36 5-32 3-20 1h-55l-33-2-42-5-29-5-38-9-34-10-26-9-32-13-28-13-21-11-5-5v-11l30-52 14-24 4-7-1-3-16-9-27-18-19-14-16-13-14-12-15-14-27-27-7-8-9-10-11-14-14-18-12-18-12-19-12-21-14-27-13-30-10-28-9-29-8-33-6-37-4-42v-67l4-42 6-38 9-36 9-29 11-29 13-29 11-22 14-24 10-16 11-16 12-16 11-14 12-14 12-13 8-8 7-8 17-16 13-12 14-11 16-13 16-11 18-12 22-13 22-12 25-12 27-11 36-12 25-7 34-7 35-5zm1 10-35 3-29 4-38 8-35 10-31 11-30 13-16 8-25 13-21 13-15 10-14 10-17 13-11 9-10 9-8 7-16 15-10 10-7 8-11 12-9 11-12 15-10 14-16 24-12 20-15 28-12 26-13 34-10 31-9 38-5 28-3 23-2 25v63l3 33 5 33 8 36 8 28 9 26 14 34 18 36 13 22 13 20 12 17 10 13 9 11 12 14 11 12 7 7 7 8 10 9 7 7 11 9 15 13 19 14 20 14 23 14 16 9h2l-7 14-13 22-15 26-14 24-5 8 1 3 17 9 33 15 27 11 28 10 34 10 34 8 39 7 35 4 32 2h52l32-2 27-3 37-6 40-9 28-8 38-13 27-11 26-12 24-12-1-4-14-25-13-22-15-26-10-17v-2l20-11 19-12 19-13 19-14 13-11 11-9 15-14 28-28 9-11 10-11 12-16 14-19 11-17 15-25 15-29 11-24 13-34 9-29 7-28 6-31 4-31 2-25v-59l-3-34-5-34-7-32-10-35-8-23-14-34-18-36-13-22-15-23-10-14-13-17-11-13-9-11-11-11-7-8-10-10-8-7-14-13-11-9-18-14-17-12-20-13-15-9-22-12-24-12-24-10-27-10-30-9-29-7-27-5-32-4-25-2z" fill="#FDFDFD"/>
<path transform="translate(422,1722)" d="m0 0h1205v29h-1205z" fill="#142A83"/>
<path transform="translate(994,131)" d="m0 0h62l31 3 32 5 32 7 30 9 28 10 25 11 23 11 23 13 22 14 17 12 13 10 11 9 13 11 13 12 25 25 7 8 11 13 13 17 13 18 11 17 14 24 12 23 12 27 11 30 9 29 7 30 5 30v4l-17 3-64 9-78 11h-6l-2-8-5-26-8-28-10-26-12-25-11-19-10-15-12-16-11-13-11-12-14-14-11-9-12-10-22-15-15-9-25-13-25-10-25-8-26-6-26-4-11-1h-50l-26 3-25 5-22 6-21 7-23 10-25 13-19 12-19 14-14 12-10 9-17 17-9 11-12 15-14 21-10 17-12 24-9 23-8 26-6 27-3 15-13-1-42-6-22-3-85-12-3-1 1-12 5-27 7-29 13-40 9-22 11-24 13-25 12-20 10-15 12-17 11-14 11-13 7-8 9-10 11-12 8-7 10-10 11-9 14-12 19-14 16-11 21-13 16-9 23-12 25-11 27-10 32-10 26-6 27-5 33-4zm23 11-25 1-38 4-33 6-35 9-30 10-29 12-25 12-24 13-19 12-19 13-13 10-14 11-11 10-8 7-15 14-15 16-9 10-9 11-14 18-14 20-13 21-12 22-13 26-11 27-12 36-9 36-4 24 17 3 121 17h4l3-13 6-25 9-27 11-26 12-23 11-18 12-17 11-14 11-12 7-8 13-13 8-7 16-13 18-13 25-15 19-10 24-10 33-11 27-6 29-4 12-1h44l29 3 26 5 23 6 23 8 21 9 16 8 20 11 15 10 19 14 14 12 15 14 8 8 7 8 11 13 13 18 10 15 10 18 8 15 10 24 11 33 6 27 2 7 18-2 121-17 3-1-5-28-7-28-9-29-11-28-9-20-11-22-14-24-18-27-9-12-11-14-11-13-12-13-28-28-8-7-17-14-16-12-30-20-21-12-23-12-22-10-34-13-31-9-30-7-31-5-30-3-25-1z" fill="#006C3E"/>
<path transform="translate(1e3 298)" d="m0 0h50l26 3 29 6 21 6 23 8 24 11 19 10 20 13 14 10 11 9 15 13 19 19 9 11 10 12 14 20 14 24 13 27 10 27 8 29 5 28v2l41-6h7l-3 2-15 6-15 9-14 12-9 11-7 11-7 14-4 13h-1v-44l-3-30-5-26-7-24-9-24-13-27-11-18-11-16-13-16-9-10-8-9-8-7-12-11-13-10-21-14-17-10-23-11-24-9-25-7-26-5-17-2-17-1h-20l-27 2-29 5-26 7-22 8-24 11-20 11-12 8-14 10-13 11-8 7-10 9-14 15-11 14-11 15-15 25-13 27-10 27-7 28-4 24-2 21v35l1 18-2-4-6-18-9-17-7-9-9-10-12-10-16-9-15-6-13-3v-1l13 1 48 7 3-21 8-32 9-26 9-20 10-20 13-21 12-17 14-17 12-13 17-17 11-9 15-12 21-14 21-12 25-12 24-9 25-7 23-5 21-3z" fill="#FDFDFD"/>
<path transform="translate(718,761)" d="m0 0h3l14 29 13 21 12 17 11 14 10 11 7 8 11 11 8 7 17 14 20 14 22 13 24 12 20 8 24 8 30 7 29 4 12 1h40l28-3 27-5 29-8 26-10 25-12 18-10 18-12 17-13 14-12 13-12 15-16 11-14 10-13 11-17 12-21 10-21 6 1 27 12 30 13 85 37 6 3-7 16-14 28-15 25-8 12-12 17-10 13-9 11-12 14-15 16-16 16-8 7-10 9-10 8-18 14-30 20-24 14-23 12-29 13-27 10-29 9-29 7-35 6-28 3-15 1h-50l-35-3-33-5-28-6-31-9-29-10-32-14-26-13-27-16-25-17-17-13-11-9-13-11-16-15-19-19-7-8-13-15-10-13-13-18-12-18-9-15-14-25-13-28 3-3 28-12 41-18 10-4 13-6 42-18zm-5 15-60 26-41 18-28 12-1 3 12 24 12 21 14 22 13 18 14 18 13 15 12 13 24 24 11 9 10 9 13 10 18 13 20 13 15 9 25 13 16 8 27 11 25 9 29 8 27 6 31 5 34 3h54l34-3 36-6 34-8 28-9 27-10 24-11 24-12 22-13 24-16 19-14 11-9 14-12 13-12 22-22 7-8 12-14 10-13 13-18 15-23 12-21 14-27-1-3-49-21-29-13-51-22h-2l-10 20-12 20-12 17-11 14-12 14-7 7-6 7-8 7-12 11-17 13-19 13-17 10-23 12-27 11-25 8-26 6-25 4-25 2h-32l-25-2-30-5-21-5-33-11-23-10-25-13-19-12-19-14-13-11-8-7-13-12-13-14-9-11-10-13-11-16-9-15-12-22z" fill="#006C3E"/>
<path transform="translate(725,677)" d="m0 0 2 4 5 24 8 26 8 20 12 25 13 21 10 14 13 16 11 12 17 17 11 9 20 15 25 15 22 11 26 10 24 7 25 5 25 3h45l26-3 29-6 26-8 26-11 25-13 24-16 14-11 14-12 19-19 9-11 11-14 10-15 9-15 9-17 11-26 8-26 6-26h1l2 22 5 19 8 17 9 13 11 12 11 9 15 9-2 1-46-20-8-3-2 6-9 19-13 22-11 16-11 14-11 13-14 15-15 14-11 9-20 15-21 13-27 14-24 10-21 7-28 7-25 4-21 2h-40l-28-3-22-4-24-6-27-9-24-11-23-12-19-12-16-12-11-9-10-9-8-7-12-12-7-8-13-16-12-17-12-19-14-27-2-7-17 7-30 13-4 1 3-3 13-9 7-6 7-8 9-13 8-16 5-15 2-11z" fill="#FDFDFD"/>
<path transform="translate(1277,1531)" d="m0 0h41l26 52 15 29 8 16 10-19 39-78h41v160h-33v-105l-1 1-29 58-14 29-1 1h-24l-13-25-11-23-20-40-1 104h-33z" fill="#142A83"/>
<path transform="translate(876,500)" d="m0 0h8l13 4 21 1 6 3 2 5-5 10-8 11-10 18-9 19-7 21-4 21-1 11v17l2 18 5 21 7 20 10 21 10 17 8 12 10 14 11 14 11 13 9 11 32 34 23 23v4l-7 1-9-5-12-8-20-14-17-13-16-13-10-9-8-7-25-25-9-11-13-17-11-17-12-23-8-21-5-20-3-22v-28l3-23 6-24 7-20 12-26 7-13z" fill="#006C3E"/>
<path transform="translate(947,1531)" d="m0 0h81l15 3 14 5 11 7 10 9 9 10 8 16 4 15 1 9v12l-2 14-5 15-7 12-11 12-10 8-16 8-15 4-6 1h-81zm37 30-1 1v99h40l12-3 10-6 7-6 6-10 4-12 1-16-3-16-5-10-9-10-11-7-9-3-5-1z" fill="#142A83"/>
<path transform="translate(1123,1531)" d="m0 0h122v30h-86v35h78v29l-1 1h-77v35h88l1 1v29h-125z" fill="#142A83"/>
<path transform="translate(490,1531)" d="m0 0h39l13 31 13 30 11 26 23 54 8 19h-40l-11-28-1-2h-74l-11 28-1 2h-38l10-24 14-32 26-60 14-32zm18 39-6 13-19 47v1h50l-1-5-20-49-3-7z" fill="#142A83"/>
<path transform="translate(824,1531)" d="m0 0h38l7 15 19 45 16 37 23 54 3 9h-39l-11-27-1-3h-74l-11 27-1 3h-38l3-9 13-29 11-26 14-32 26-60zm17 39-15 37-9 22v2h50l-3-9-17-42-4-10z" fill="#142A83"/>
<path transform="translate(676,1530)" d="m0 0h22l15 3 15 6 11 7 11 9-1 4-11 14-8 9-7-6-10-7-11-5-10-2-16 1-13 5-9 7-7 8-4 8-2 6-1 7v12l4 16 7 11 9 8 10 5 8 2h19l13-4 10-6 9-7 7 6 9 9 6 8-10 9-14 9-13 6-17 4h-24l-18-4-16-8-13-10-9-10-8-13-6-18-1-6v-24l4-16 8-16 8-10 9-9 14-9 12-5 12-3z" fill="#142A83"/>
<path transform="translate(755,1365)" d="m0 0h27l9 11 14 19 12 16 14 19 15 20 1-85h29v135h-28l-14-18-14-19-16-21-14-19-5-7-1 84h-29z" fill="#142A83"/>
<path transform="translate(604,1365)" d="m0 0h27l9 11 28 38 16 21 10 14 1 1 1-85h29v135h-28l-14-18-14-19-16-21-14-19-5-7-1 84h-29z" fill="#142A83"/>
<path transform="translate(1259,1365)" d="m0 0h65l16 3 12 5 10 8 6 10 3 9 1 8v9l-2 12-4 9-6 9-11 8h-2l11 18 13 20 4 7h-35l-9-17-11-19v-2h-31v38h-30zm30 25v47h28l13-2 8-5 4-7 1-5v-10l-4-10-9-6-11-2z" fill="#142A83"/>
<path transform="translate(963,1365)" d="m0 0h29l1 56 60 1v-57h30v135h-30v-53l-60 1v52h-31v-134z" fill="#142A83"/>
<path transform="translate(1474,1531)" d="m0 0h37l12 22 10 17 14 25 3 5v2l3-3 13-24 13-23 12-21h37l-8 16-13 23-15 29-10 18-12 23-1 51h-36l-1-52-13-23-13-25-10-18-15-28-7-12z" fill="#142A83"/>
<path transform="translate(1156,1365)" d="m0 0h31l5 10 17 40 11 26 19 45 5 12v2h-32l-10-24v-2l-62 1-10 24-1 1h-31l8-20 15-34 11-26 13-30zm14 33-12 30-8 19v2h41l-1-5-14-35-5-11z" fill="#142A83"/>
<path transform="translate(1397,1365)" d="m0 0h64l16 3 12 6 8 7 6 10 3 9 1 7v11l-3 14-6 12-8 8-8 5-13 4-6 1h-36v38h-31v-134zm30 25v47h25l13-2 8-5 4-8 1-4v-10l-3-8-5-5-8-4-8-1z" fill="#142A83"/>
<path transform="translate(1569,1364)" d="m0 0h13l14 2 16 5 13 7 1 3-10 22-4 1-19-9-10-3-12-1-9 2-5 5v7l4 6 13 6 23 7 16 8 7 6 5 9 2 8v12l-4 13-9 10-10 6-13 4-6 1h-21l-15-3-16-6-14-9-3-2 1-6 10-19 5 2 14 9 13 5 9 2h14l8-3 3-3 1-9-3-5-8-5-25-8-16-6-10-7-6-9-2-6-1-12 2-10 4-8 9-9 12-6 11-3z" fill="#142A83"/>
<path transform="translate(431,1365)" d="m0 0h96v25h-66v34h60v26h-60v50h-30z" fill="#152B84"/>
<path transform="translate(545,1365)" d="m0 0h29l1 1v134h-31v-134z" fill="#142A83"/>
<path transform="translate(598,675)" d="m0 0 8 3 14 10 9 9 1 5-5 39-14 8-10 4-9 1-13-8-12-11-6-6-1-4v-11l3-18 4-4 29-16z" fill="#FDFDFD"/>
<path transform="translate(1415,674)" d="m0 0 6 2 11 7 10 9 5 5-1 14-4 29-10 6-11 5-6 2h-6l-14-9-12-11-5-5v-21l3-14 16-9z" fill="#FDFDFD"/>
<path transform="translate(668,677)" d="m0 0 6 1 18 12 8 5 1 2v18l-3 10-4 6-10 9-14 9-13 6-14-5-10-7-2-3 5-40 5-6 16-11z" fill="#FDFDFD"/>
<path transform="translate(1485,676)" d="m0 0 6 1 27 18v20l-4 12-9 9-14 10-17 8-11-4-9-5-5-4 1-17 3-24 3-5 13-10z" fill="#FDFDFD"/>
<path transform="translate(1401,606)" d="m0 0 4 1 8 8 7 8 7 7-2 12-6 16-7 11-18 10-16 8-11-8-8-10v-8l5-19 5-12 8-13 8-5 12-5z" fill="#FDFDFD"/>
<path transform="translate(584,607)" d="m0 0 4 1 12 13 9 9v8l-5 16-8 15-10 6-24 13-5-2-10-9-5-7v-9l4-16 8-18 7-10 16-8z" fill="#FDFDFD"/>
<path transform="translate(945,488)" d="m0 0h10l8 32 19 82 21 91 14 61-1 7-5 8h-2l-11-46-19-82-22-95-13-57z" fill="#FDFDFD"/>
<path transform="translate(1493,607)" d="m0 0 9 2 9 8 10 14 8 15 5 16 1 5v9l-4 6-9 6-5-1-25-16-4-5-7-25-2-13z" fill="#FDFDFD"/>
<path transform="translate(676,608)" d="m0 0 8 2 7 5 11 14 8 14 6 17 2 10v7l-6 8-8 4-4-1-16-10-11-8-4-8-6-24-1-9 10-16z" fill="#FDFDFD"/>
<path transform="translate(1058,171)" d="m0 0 9 1 6 3 5 4 6-3 5-1h10l8 3 7 8 1 6-3 9-7 8-8 5-12 5 8 9 11 17 9 10 11 7v1l-12-1-12-2-6-9-12-20-6-8-3-2-3 18-1 15-13-1-2-2 3-7 9-55-1-9-4-6z" fill="#142A83"/>
<path transform="translate(966,486)" d="m0 0h9l16 68 15 65 19 82 7 30-1 4-6 10-2-1-44-190-15-65v-2z" fill="#FDFDFD"/>
<path transform="translate(1429,582)" d="m0 0 19 1 17 4 12 5 6 4 4 6-1 5-11 17-7 2-12 1h-20l-5-2-22-22 2-9 5-8 3-3z" fill="#FDFDFD"/>
<path transform="translate(614,583)" d="m0 0 17 1 17 4 14 6 5 4 3 5-1 4-9 15-3 4-18 2h-20l-5-2-22-22 2-9 6-10 2-1z" fill="#FDFDFD"/>
<path transform="translate(988,169)" d="m0 0h7l4 4 20 39 12 22 8 11 5 6-4 1h-14l-10-20-14-24h-2l-16 24-11 16-8 11-2-2-2-9v-15l3-12 8-15 11-12 7-5-2-5-5-7-12-6v-1z" fill="#142A83"/>
<path transform="translate(990,483)" d="m0 0h4l4 15 19 82 22 95 7 30-1 5-6 10-2-2-27-117-17-73-9-39v-5z" fill="#FDFDFD"/>
<path transform="translate(1157,188)" d="m0 0 10 4 7 8 4-1h13l10 4 6 7 1 2v9l-3 6-8 7-10 4-11 2h-10l-5-1-3 10-6 16-1 7-6-1-8-3 2-5 4-8 18-48v-11l-4-6z" fill="#142A83"/>
<path transform="translate(1010,480)" d="m0 0 4 1 16 68 19 82 11 48-2 6-5 9-2-3-17-73-22-95-9-39 1-3z" fill="#FDFDFD"/>
<path transform="translate(919,183)" d="m0 0 2 1 17 52 6 18 3 6-11 4h-4l-2-13-7-21-30 5-11 1 12 36 2 5-14 4-2-12-17-53-5-6-10-3 3-2 15-5h4l10 30 16-2 26-4-9-25-4-5-4-2-6-1 1-2z" fill="#142A83"/>
<path transform="translate(767,247)" d="m0 0 4 2 11 13 11 14 26 32 3 5h-9l-81-17 8 10 13 16 8 10 6 5 13 4v2l-14 11-2-3-6-12-11-13-20-25-5-6v-2l-12 1 5-5 7-6 10 1 67 14h3l-11-13-8-10-11-14-6-3-10-1 5-5z" fill="#142A83"/>
<path transform="translate(679,323)" d="m0 0 4 2 20 15 18 14 19 14 8 6-2 2-7 1-78 3-4 1 18 14 19 14 9 3h11l-2 5-9 11-4-5-5-6-19-14-21-16-9-6-10 2 2-4 7-9 1-1 39-2 25-1h16v-2l-4-2-12-9-21-16-9-2-9 1 4-6z" fill="#142A83"/>
<path transform="translate(1028,477)" d="m0 0h5l8 33 25 108 8 35-7 14-2-2-26-112-16-69-1-5z" fill="#FDFDFD"/>
<path transform="translate(740,899)" d="m0 0h8l7 3 6 5 4 8v10l-3 8-9 10-9 5-10 1-10-4-6-7-2-4v-13l4-8 7-8 9-5z" fill="#FDFDFD"/>
<path transform="translate(1096,1015)" d="m0 0h10l8 4 6 7 3 8 1 10-2 10-4 6-6 5-5 2h-10l-10-5-6-9-2-6v-15l4-9 7-6z" fill="#FDFDFD"/>
<path transform="translate(544,732)" d="m0 0h12l11 12 15 11 10 6 6 10 2 8-10 6-7-1-16-7-11-7-11-9-7-7-5-7v-7l1-5z" fill="#FDFDFD"/>
<path transform="translate(1361,731)" d="m0 0h12l12 12 8 7 16 10 5 8 3 7-1 4-8 5-8-1-16-7-15-10-11-10-8-10 1-11 5-3z" fill="#FDFDFD"/>
<path transform="translate(1398,419)" d="m0 0h13l11 4 9 6 10 13 10 21 8 19v2l-11-1-6 1 2-7v-11l-4-11-6-10-9-8-9-4-11-1-10 2-9 4-8 6-4 5-4 11v8l3 12 6 10 11 8 12 4-3 2-9 3-10-6-8-8-6-10-4-13-1-14 3-12 6-9 7-7 14-7z" fill="#142A83"/>
<path transform="translate(845,1782)" d="m0 0h26l8 2 9 6 5 8 1 4v12l-3 8-5 6-10 5-5 1h-26l-1-1v-50zm13 11v30h12l6-3 3-3 1-3v-12l-4-6-7-3z" fill="#006C3E"/>
<path transform="translate(1046,474)" d="m0 0h6l2 5 33 143-1 6-5 11h-2l-15-65-19-82-3-13v-4z" fill="#FDFDFD"/>
<path transform="translate(557,1782)" d="m0 0h12l16 21 6 8 1-29h12v52h-11l-7-8-12-16-4-5-1 29h-12z" fill="#006C3E"/>
<path transform="translate(1494,1781)" d="m0 0h8l10 3 8 6 5 8 1 4v12l-4 9-5 6-10 5-5 1h-8l-10-3-10-9-3-7-1-5v-7l3-9 7-8 6-4zm0 12-6 4-3 4-1 3v8l3 6 5 4 2 1h9l6-4 3-5v-12l-4-6-5-3z" fill="#006C3E"/>
<path transform="translate(1116,1781)" d="m0 0h9l10 3 9 8 4 9v14l-5 10-8 7-10 3h-9l-9-3-6-4-6-8-2-5v-14l5-10 8-7zm0 12-6 4-3 5-1 8 3 8 5 4 2 1h9l6-4 3-5 1-8-2-7-6-5-2-1z" fill="#006C3E"/>
<path transform="translate(451,1782)" d="m0 0h26l8 2 7 4 6 8 2 5v14l-5 10-8 6-10 3h-26l-1-2v-49zm13 11v30h12l6-3 4-5v-13l-4-6-7-3z" fill="#016C3E"/>
<path transform="translate(1533,1782)" d="m0 0h28l9 3 5 5 2 3 1 10-3 9-4 4h-2l10 18h-15l-8-14h-9l-1 14h-13zm14 11-1 1v15h13l5-3 1-7-3-5-2-1z" fill="#006C3E"/>
<path transform="translate(1244,232)" d="m0 0h15l10 4 11 8 7 8v2l-8 6-5 5v-10l-3-9-9-7-7-2-8 1-6 4-3 6 1 7 6 9 10 10 7 9 3 8-1 9-4 7-6 5-4 2-9 1-10-2-10-5-11-9-8-10v-2l7-5 5-5 2 14 4 8 7 6 6 3 11 1 6-3 3-5v-9l-6-10-15-15-5-9-1-8 3-8 8-7z" fill="#142A83"/>
<path transform="translate(1e3 1782)" d="m0 0h41v11h-27v10h24v11h-24v9h27l1 1v10h-42z" fill="#006C3E"/>
<path transform="translate(507,1782)" d="m0 0h41v11h-28v10h25v11h-25v9h28l1 2-1 9h-41z" fill="#006C3E"/>
<path transform="translate(901,1782)" d="m0 0h41v11h-28v10h25v11h-25v9h28v11h-41z" fill="#006C3E"/>
<path transform="translate(1354,308)" d="m0 0 5 5 10 12 11 14 7 9-5 5-6 2-1-1-2-11-6-11-5-6-5 3-16 13-3 3 6 8 16 8-13 11-4 2-2-12-5-9-4-4-15 12-13 10-14-3v-2l13-10 16-13 17-13 13-11 3-3z" fill="#142A83"/>
<path transform="translate(597,456)" d="m0 0 6 1 5 4-1 3-6 5-7 14-2 8 9 2 20 6 3-10v-8l-2-9 9 2 10 3v3l-7 6-6 12-1 4 12 3 22 7 3 7 2 7-9-2-56-18-7-2h-8l-5 2 3-11 12-38z" fill="#142A83"/>
<path transform="translate(1318,1782)" d="m0 0h13l1 33 3 6 2 1h8l4-1 1-4 1-35h13l1 1v32l-3 10-5 6-6 3-5 1h-9l-11-4-6-7-2-5z" fill="#006C3E"/>
<path transform="translate(1287,1781)" d="m0 0h9l13 4 2 1-1 6-3 6-5-2-9-3h-8l1 5 9 4 10 4 5 5 2 5-1 9-5 6-6 3-5 1h-9l-13-4-6-4 5-11 12 6 10 1 2-1v-5l-7-3-13-5-5-6-1-8 3-7 6-5z" fill="#006C3E"/>
<path transform="translate(1154,1782)" d="m0 0h27l10 3 5 6 2 6v7l-3 8-7 6-3 1-16 1-1 14h-14zm14 11v16h11l5-3 1-2v-6l-5-5z" fill="#006C3E"/>
<path transform="translate(1374,1782)" d="m0 0h27l9 3 5 4 3 9-1 10-4 6-8 5-16 1-1 14h-14zm14 11v16h11l5-3 1-8-5-5z" fill="#006C3E"/>
<path transform="translate(1069,470)" d="m0 0 3 1 10 43 18 77v7l-6 13-2-3-22-95-9-39v-2z" fill="#FDFDFD"/>
<path transform="translate(1424,1782)" d="m0 0h27l9 3 5 5 2 4v13l-3 6-5 4-5 2-16 1-1 14h-13zm14 11-1 1v15h12l4-2 1-2v-9l-4-3z" fill="#006C3E"/>
<path transform="translate(946,1782)" d="m0 0h14l9 25 4 11 12-35 1-1h13l-1 6-18 46h-15l-19-49z" fill="#006C3E"/>
<path transform="translate(936,1007)" d="m0 0 9 1 4 2-1 3-6 5-5 8-3 9-1 5v9l3 8 5 4 8 2 8-1 6-2 7-35-1-7-2-2v-3l12 2 1 3-9 44-4 11-5 6-8 4h-15l-12-4-6-4 3-2 8-2 4 5 8 3 9-1 3-1 6-12-5 2h-15l-10-5-5-6-3-8v-12l4-9 6-8 4-3-1-4-2-4z" fill="#142A83"/>
<path transform="translate(683,1782)" d="m0 0h38l1 2-1 9h-25v11h23v11h-23v19h-13z" fill="#006C3E"/>
<path transform="translate(1088,467)" d="m0 0h3l9 37 14 61-3 9-4 7-2-3-14-61-10-43v-5z" fill="#FDFDFD"/>
<path transform="translate(544,613)" d="m0 0 6 3 1 5-8 16-5 16-3 16-8 11-9 7-5-2 2-20 5-16 8-16 9-13z" fill="#FDFDFD"/>
<path transform="translate(1361,612)" d="m0 0 5 2 2 2-1 6-8 17-5 18-3 13-8 10-7 6-5-1v-13l4-18 6-15 9-15z" fill="#FDFDFD"/>
<path transform="translate(1295,900)" d="m0 0 6 1 34 14 11 4 10 2-8 8-9-3-21-8-3-1 4 39v3l-5-2-9-10-4-10-1-4v-15l1-6-5-2h-7l-4 1v-2l8-7z" fill="#142A83"/>
<path transform="translate(1098,1011)" d="m0 0h9l10 3 8 6 5 8 2 6v15l-5 10-8 7-9 4-6 1h-9l-10-3-7-5-6-9-2-7v-12l3-9 8-9 8-4zm-2 4-8 3-7 8-2 6v15l4 10 4 5 10 5h10l8-4 6-7 2-5 1-8-2-12-4-8-7-6-5-2z" fill="#142A83"/>
<path transform="translate(733,893)" d="m0 0h12l9 4 8 6 6 8 3 7v15l-4 8-7 8-10 5-4 1h-8l-11-4-8-6-6-7-4-11v-8l3-10 9-10 6-4zm7 6-10 4-8 7-5 8-1 3v13l5 8 5 4 8 3 10-1 9-5 7-7 4-7 1-4v-10l-4-8-7-6-6-2z" fill="#142A83"/>
<path transform="translate(723,1782)" d="m0 0h13l12 21 10-18 2-3h13l-2 6-12 23-3 5-1 18h-13l-1-16-12-23-6-11z" fill="#006C3E"/>
<path transform="translate(1582,1782)" d="m0 0h44v11h-15v41h-14v-41h-15z" fill="#006C3E"/>
<path transform="translate(1044,1191)" d="m0 0h10l1 41 1 4-8 1v-2l-9 3-9-1-6-4-3-5v-12l4-6 5-3 14-2h3l-1-10z" fill="#006C3E"/>
<path transform="translate(1230,956)" d="m0 0 1 4 1 7-13 2-10 6-6 7-3 7v5l20-12 9-6 4-7 4 5 2 5-12 3-19 12-6 4h-2l4 11 5 7 10 5h11l10-5 6-8 2-5 1-8 4 4 1 4-5 10-8 8-12 6-3 1h-11l-10-4-7-6-5-9-2-6v-12l3-8 9-10 22-14z" fill="#142A83"/>
<path transform="translate(963,1189)" d="m0 0 10 1-2 41v4h-23l-6-4-4-5-1-7 3-9 6-5 3-1 16-1v-12h-2z" fill="#006C3E"/>
<path transform="translate(1029,1023)" d="m0 0h9l8 4 6 7 2 6v15l-5 10-9 6-11 1z" fill="#FDFDFD"/>
<path transform="translate(1276,922)" d="m0 0h1l3 11-12 2-9 7-6 10-1 9 4 11 7 8 6 3 9 1 10-4 6-7 3-9-4-5v-2l-10-1-2-1 10-8 5 4 11 14 5 7 1 8-2 7-3 3-1-12-4-7h-2l-6 8-9 8-7 3h-13l-7-3-8-7-4-5-3-8v-10l4-10 9-10 14-11z" fill="#142A83"/>
<path transform="translate(610,1782)" d="m0 0h44v11l-15 1-1 40h-13l-1-40-14-1z" fill="#006C3E"/>
<path transform="translate(785,934)" d="m0 0 5 1 7 6-3 3-10 4-9 8-6 10-2 5v9l4 7 10 5h8l5-5 8-11 10-15 1-6 1-3 9 6-2 5-16 23-13 19-5-2-1-4 1-1-16-5-8-7-4-8v-11l4-10 7-8 10-5 5-2z" fill="#142A83"/>
<path transform="translate(1017,1020)" d="m0 0h24l10 4 7 6 4 7 1 4v12l-4 10-7 7-9 4-5 1h-17l-1-50zm12 3v49l11-1 9-6 5-10v-15l-3-8-8-7-5-2z" fill="#142A83"/>
<path transform="translate(621,411)" d="m0 0 16 8 31 16 19 10 6 2-1 4-5 9-4-2-5-4-27-14-22-12-3-1h-7l-7 4-2 1 2-5z" fill="#142A83"/>
<path transform="translate(1054,1782)" d="m0 0h13v40h22v12h-35z" fill="#006C3E"/>
<path transform="translate(1174,987)" d="m0 0 2 1 16 43 3 10-6-2-28-16-19-11 3 10 8 20 9 9-9 4h-3l-2-13-13-34-7-2 1-2 8-3 4 1 27 15 17 10v-2l-10-27-6-5-3-1v-2z" fill="#142A83"/>
<path transform="translate(828,962)" d="m0 0 5 2 5 3 3 12 7 37v5h2l2-6 12-22v-7l-1-5 9 4-1 4-18 34-8 13-2-2-10-52v-6h-2l-2 5-12 22-1 4v11l-11-6 6-7 13-23 6-11-1-6z" fill="#142A83"/>
<path transform="translate(700,733)" d="m0 0h7l-2 6-8 11-9 10-10 9-13 8-13 6-4-1-2-2 1-5 8-11 5-4 21-11 9-7z" fill="#FDFDFD"/>
<path transform="translate(1517,732)" d="m0 0h7l-2 6-10 14-13 13-10 7-17 9-6 1-3-3 1-5 8-11 5-4 16-8 11-7 12-11z" fill="#FDFDFD"/>
<path transform="translate(693,844)" d="m0 0h7l11 4 10 9 9 11 9 12v1l-12 2-1-10-6-10-7-6-6-3-8-1-8 2-8 4-7 8-2 5v12l4 8 4 5 8 4 11 2-5 5-10-3-8-6-7-9-4-9v-14l5-10 7-7 9-5z" fill="#142A83"/>
<path transform="translate(1140,1170)" d="m0 0h10l6 3 6 7 3 9v16l-4 10-8 8-9 4-16 2 5-6 2-6 7 4h6l5-4 3-9-1-18-4-13-4-3h-6l-5 4-1 2v12l4 6 2 1h6l6-3-2 5-5 3h-11l-6-4-3-5v-10l4-8 7-6z" fill="#006C3E"/>
<path transform="translate(1200,1157)" d="m0 0 3 1-3 6-1 4-6-2-10 1-6 1 3 10v4l10-3h11l6 3 5 6 2 7-1 10-4 6-8 5-3 1h-15l-6-3 3-2 5-5h2l5 5h8l5-5v-12l-3-7-3-3-2-1h-8l-8 3-5 4h-2l-5-18 1-5 4-4z" fill="#006C3E"/>
<path transform="translate(1320,869)" d="m0 0 4 1 18 13 19 14 5 2 6-9 2-6 2-9 5 5 3 4-1 4-10 11-10 13-7-6-17-13-14-10-8-1-7 2 6-9z" fill="#142A83"/>
<path transform="translate(1235,1143)" d="m0 0h1l3 12 6 16v3l11-3-6 7h-2l5 14 2 3-7 3h-3l-2-9-3-7-16 6-4-1 1-4v-13l-3-9-7-3v-2l9-6 4 1 3 12 1 7v9l-1 2 11-4-6-17-1-4-5-2 6-7z" fill="#006C3E"/>
<path transform="translate(1177,204)" d="m0 0h9l8 4 3 5v6l-5 8-5 4-11 3h-9l-3-1 1-6 7-19z" fill="#FDFDFD"/>
<path transform="translate(1085,181)" d="m0 0h9l6 3 3 4v8l-4 8-8 6-10 3h-7l1-11 3-17 4-3z" fill="#FDFDFD"/>
<path transform="translate(660,1782)" d="m0 0h13v52h-13z" fill="#006C3E"/>
<path transform="translate(427,1782)" d="m0 0h13v52h-13z" fill="#006C3E"/>
<path transform="translate(792,1138)" d="m0 0 9 3 20 8 1 3-5 5-6-7-10-4-6 14-1 4 6 1h11l-4 11h-3l-5-6-6-3-5 10-4 10-9 3 1-5 16-39z" fill="#006C3E"/>
<path transform="translate(879,988)" d="m0 0 37 12 14 5 1 2-2 4-4-2-9-6-8-2-14 41-3 11-9-3 7-19 12-34-9-2h-14z" fill="#142A83"/>
<path transform="translate(992,193)" d="m0 0 5 5 1 6-10 14-13 19h-3v-10l2-10 6-12 9-10z" fill="#FDFDFD"/>
<path transform="translate(827,1177)" d="m0 0 7 2 3 4v12l-4 6-4 3h-8l-5-5-1-2v-8l4-8 4-3z" fill="#FDFDFD"/>
<path transform="translate(1035,1209)" d="m0 0h10l2 1 1 7v12l-4 5-9 1-6-4-2-6 1-9 5-6z" fill="#FDFDFD"/>
<path transform="translate(951,1207)" d="m0 0h11l3 2v12l-1 7-4 4-6 1-7-3-3-6v-8l4-7z" fill="#FDFDFD"/>
<path transform="translate(822,1174)" d="m0 0 10 1 8 5 4 8-1 9-4 6-5 4-9 1-10-4-5-6-1-3v-8l4-8 6-4zm5 3-7 3-4 6-1 3v8l4 6 2 1h8l6-5 2-4v-12l-5-5z" fill="#006C3E"/>
<path transform="translate(903,1196)" d="m0 0h5l1 1 12 2 6 4 3 5v9l-4 6-4 2 1 6-7-1v-4l4-4 3-8v-6l-3-5-3-1h-9l-3 16v9l-9-2 6-27z" fill="#006C3E"/>
<path transform="translate(860,1186)" d="m0 0 7 1v4l-4 4-3 7v7l3 5 2 1h10l2-12 1-4v-9l8 2-1 9-5 21-6-1v-2h-9l-8-4-3-3-1-3v-9l4-6 3-3-1-4z" fill="#006C3E"/>
<path transform="translate(1104,1178)" d="m0 0 4 1 2 13 3 31 2 9-10 1-1-2v-14l-3-30h-4l2-4z" fill="#006C3E"/>
<path transform="translate(990,1206)" d="m0 0h22l-4 5-6-2-9 1-4 4 20-1v6l-7-2-15-1v10l3 5 3 2h8l5-3 3-2v5l-8 4h-9l-7-3-4-5-1-2v-10l3-6 5-4z" fill="#006C3E"/>
<path transform="translate(610,781)" d="m0 0h28l2 1v2h2v2l-15 3h-22l-6-1 4-4z" fill="#FDFDFD"/>
<path transform="translate(1427,780)" d="m0 0h29l3 3v2l-15 3h-21l-6-1v-2l6-4z" fill="#FDFDFD"/>
<path transform="translate(1305,913)" d="m0 0 7 2 2 19v11l-5-5-5-10-1-11z" fill="#FDFDFD"/>
<path transform="translate(514,695)" d="m0 0 4 4 6 14 5 17-1 6-3-1-6-14-4-14z" fill="#FDFDFD"/>
<path transform="translate(1331,694)" d="m0 0 5 5 7 18 3 13-1 5h-2l-6-13-5-17z" fill="#FDFDFD"/>
<path transform="translate(1244,1793)" d="m0 0h4l-3 9-7 27-4-2-3-3 1-6 2-4h2l3-11 2-4 2-1z" fill="#026D40"/>
<path transform="translate(818,1793)" d="m0 0 4 1-3 7-7 27h-3l-5-6 1-5 2-1 2-6 2-1 3-8h2l1-6z" fill="#026D40"/>
<path transform="translate(1392,524)" d="m0 0 6 2 2 3v6l-4 4h-6l-4-3-1-6 4-5z" fill="#142A83"/>
<path transform="translate(1337,406)" d="m0 0h6l4 4v6l-3 4-5 1-5-3-1-1v-7z" fill="#142A83"/>
<path transform="translate(797,1788)" d="m0 0h3v3l9-2h15l1 5-3 3 1-5-15 1-1 4-14-3-1-4z" fill="#077043"/>
<path transform="translate(1223,1788)" d="m0 0h3l2 2 7-1h15l2 4-3 3-1-4h-7l-1 2-14 1-7-1-1-4z" fill="#077043"/>
<path transform="translate(1221,1795)" d="m0 0 4 1-3 9 1 8 6 9 5 6-5-2-9-9-3-7v-7l3-7z" fill="#036E40"/>
<path transform="translate(794,1795)" d="m0 0 5 1-3 7v8l4 8 6 8-4-2-7-6-4-8v-10z" fill="#026D3F"/>
<path transform="translate(804,1812)" d="m0 0 1 4z" fill="#006C3E"/>
<path transform="translate(803,1808)" d="m0 0 1 4z" fill="#3F906D"/>
<path transform="translate(807,1809)" d="m0 0 1 4z" fill="#006C3E"/>
<path transform="translate(808,1805)" d="m0 0 1 4z" fill="#006C3E"/>
<path transform="translate(806,1805)" d="m0 0 1 4z" fill="#3F906D"/>
<path transform="translate(1229,1804)" d="m0 0 1 4z" fill="#BDD8CD"/>
<path transform="translate(802,1804)" d="m0 0 1 4z" fill="#006C3E"/>
<path transform="translate(807,1801)" d="m0 0 1 4z" fill="#3F906D"/>
<path transform="translate(1237,1802)" d="m0 0 1 4z" fill="#3F906D"/>
<path transform="translate(1228,1800)" d="m0 0 1 4z" fill="#006C3E"/>
<path transform="translate(808,1797)" d="m0 0 1 4z" fill="#3F906D"/>
<path transform="translate(1238,1798)" d="m0 0 1 4z" fill="#006C3E"/>
<path transform="translate(1236,1798)" d="m0 0 1 4z" fill="#006C3E"/>
<path transform="translate(806,1797)" d="m0 0 1 4z" fill="#006C3E"/>
<path transform="translate(1227,1796)" d="m0 0 1 4z" fill="#006C3E"/>
<path transform="translate(1237,1794)" d="m0 0 1 4z" fill="#006C3E"/>
<path transform="translate(811,1794)" d="m0 0 1 4z" fill="#3F906D"/>
<path transform="translate(806,1813)" d="m0 0" fill="#006C3E"/>
<path transform="translate(1233,1810)" d="m0 0" fill="#006C3E"/>
<path transform="translate(805,1809)" d="m0 0" fill="#006C3E"/>
<path transform="translate(1236,1806)" d="m0 0" fill="#006C3E"/>
<path transform="translate(1234,1806)" d="m0 0" fill="#006C3E"/>
<path transform="translate(810,1806)" d="m0 0" fill="#006C3E"/>
<path transform="translate(804,1805)" d="m0 0" fill="#006C3E"/>
<path transform="translate(1235,1802)" d="m0 0" fill="#006C3E"/>
<path transform="translate(1233,1802)" d="m0 0" fill="#006C3E"/>
<path transform="translate(811,1802)" d="m0 0" fill="#006C3E"/>
<path transform="translate(809,1802)" d="m0 0" fill="#006C3E"/>
<path transform="translate(805,1801)" d="m0 0" fill="#006C3E"/>
<path transform="translate(803,1801)" d="m0 0" fill="#006C3E"/>
<path transform="translate(801,1800)" d="m0 0" fill="#006C3E"/>
<path transform="translate(1234,1798)" d="m0 0" fill="#006C3E"/>
<path transform="translate(812,1798)" d="m0 0" fill="#006C3E"/>
<path transform="translate(810,1798)" d="m0 0" fill="#006C3E"/>
<path transform="translate(804,1797)" d="m0 0" fill="#006C3E"/>
<path transform="translate(802,1797)" d="m0 0" fill="#006C3E"/>
<path transform="translate(800,1796)" d="m0 0" fill="#006C3E"/>
<path transform="translate(1241,1795)" d="m0 0" fill="#006C3E"/>
<path transform="translate(1239,1795)" d="m0 0" fill="#006C3E"/>
<path transform="translate(813,1795)" d="m0 0" fill="#549C7D"/>
<path transform="translate(1235,1794)" d="m0 0" fill="#006C3E"/>
<path transform="translate(809,1794)" d="m0 0" fill="#006C3E"/>
<path transform="translate(1232,1814)" d="m0 0" fill="#7EB49D"/>
<path transform="translate(1230,1811)" d="m0 0" fill="#FDFDFD"/>
<path transform="translate(1235,1810)" d="m0 0" fill="#006C3E"/>
<path transform="translate(1232,1807)" d="m0 0" fill="#7EB49D"/>
<path transform="translate(1232,1799)" d="m0 0" fill="#7EB49D"/>
<path transform="translate(1229,1796)" d="m0 0" fill="#FDFDFD"/>
<path transform="translate(1233,1795)" d="m0 0" fill="#006C3E"/>
<path transform="translate(814,1793)" d="m0 0" fill="#006C3E"/>
<path transform="translate(806,1827)" d="m0 0" fill="#006C3E"/>
<path transform="translate(1248,1796)" d="m0 0" fill="#006C3E"/>
<path transform="translate(1231,1796)" d="m0 0" fill="#FDFDFD"/>
</svg>
